<svg width="32" height="32" viewBox="0 0 32 32" fill="none" xmlns="http://www.w3.org/2000/svg">
<path d="M3.33331 16L5.99998 17.3333" stroke="white" stroke-width="1.5" stroke-linecap="round" stroke-linejoin="round"/>
<path d="M28.6667 16.6667L26 17.3333" stroke="white" stroke-width="1.5" stroke-linecap="round" stroke-linejoin="round"/>
<path d="M10.6667 23.3333L10.9942 22.5144C11.4814 21.2967 11.7249 20.6877 12.2328 20.3439C12.7407 20 13.3966 20 14.7082 20H17.2919C18.6035 20 19.2594 20 19.7672 20.3439C20.2751 20.6877 20.5187 21.2967 21.0058 22.5144L21.3334 23.3333" stroke="white" stroke-width="1.5" stroke-linecap="round" stroke-linejoin="round"/>
<path d="M2.66669 22.6667V26.5093C2.66669 27.0143 2.98769 27.476 3.49586 27.7019C3.82559 27.8484 4.14053 28 4.52079 28H6.81258C7.19285 28 7.50778 27.8484 7.83751 27.7019C8.34569 27.476 8.66669 27.0143 8.66669 26.5093V24" stroke="white" stroke-width="1.5" stroke-linecap="round" stroke-linejoin="round"/>
<path d="M23.3333 24V26.5093C23.3333 27.0143 23.6544 27.476 24.1625 27.7019C24.4922 27.8484 24.8072 28 25.1874 28H27.4792C27.8594 28 28.1744 27.8484 28.5041 27.7019C29.0122 27.476 29.3333 27.0143 29.3333 26.5093V22.6667" stroke="white" stroke-width="1.5" stroke-linecap="round" stroke-linejoin="round"/>
<path d="M26.6667 11.3333L28 10.6667" stroke="white" stroke-width="1.5" stroke-linecap="round" stroke-linejoin="round"/>
<path d="M5.33333 11.3333L4 10.6667" stroke="white" stroke-width="1.5" stroke-linecap="round" stroke-linejoin="round"/>
<path d="M6 12L7.45107 7.64679C8.03776 5.88673 8.33109 5.00671 9.02947 4.50336C9.72783 4 10.6555 4 12.5107 4H19.4893C21.3445 4 22.2721 4 22.9705 4.50336C23.6689 5.00671 23.9623 5.88673 24.5489 7.64679L26 12" stroke="white" stroke-width="1.5" stroke-linejoin="round"/>
<path d="M6.00002 12H26C27.2763 13.3513 29.3334 15.2332 29.3334 17.3328V21.9603C29.3334 22.7209 28.8274 23.3611 28.1558 23.45L24 24H8.00002L3.84423 23.45C3.17275 23.3611 2.66669 22.7209 2.66669 21.9603V17.3328C2.66669 15.2332 4.72374 13.3513 6.00002 12Z" stroke="white" stroke-width="1.5" stroke-linejoin="round"/>
</svg>
