<svg width="32" height="32" viewBox="0 0 32 32" fill="none" xmlns="http://www.w3.org/2000/svg">
<path d="M29.3334 16C29.3334 23.3637 23.3638 29.3333 16 29.3333C8.63622 29.3333 2.66669 23.3637 2.66669 16C2.66669 8.63619 8.63622 2.66666 16 2.66666C23.3638 2.66666 29.3334 8.63619 29.3334 16Z" stroke="white" stroke-width="3"/>
<path d="M15.6102 12.4653C15.8426 12.2894 16.1573 12.2894 16.3897 12.4653L19.3933 14.7387C19.6257 14.9145 19.7229 15.2263 19.6341 15.5109L18.4869 19.1895C18.3981 19.474 18.1436 19.6667 17.8564 19.6667H14.1436C13.8564 19.6667 13.6018 19.474 13.513 19.1895L12.3658 15.5109C12.2771 15.2263 12.3743 14.9145 12.6066 14.7387L15.6102 12.4653Z" stroke="white" stroke-width="3"/>
<path d="M16 12V6.66666M20 14.6667L25.3334 12.6667M18.6667 20L21.3334 24M13.3334 19.3333L10.6667 22.6667M12 15.3333L6.66669 14" stroke="white" stroke-width="3" stroke-linecap="round" stroke-linejoin="round"/>
<path d="M12 3.33334L16.022 6.16322L20 3.33334M2.66669 17.0664L6.92875 13.9184L4.74066 8.96061M25.9604 25.1375L20.8211 24.2073L19.0207 29.3333M26.7064 8.26116L25.0714 12.5197L29.3334 15.6676M10.6799 28.5412L10.7352 22.8887L5.33777 22.9467" stroke="white" stroke-width="3" stroke-linejoin="round"/>
</svg>
