<svg width="32" height="32" viewBox="0 0 32 32" fill="none" xmlns="http://www.w3.org/2000/svg">
<path d="M2.66666 13.3333C2.66666 8.30502 2.66666 5.79087 4.22875 4.22877C5.79086 2.66667 8.305 2.66667 13.3333 2.66667H18.6667C23.6949 2.66667 26.2092 2.66667 27.7712 4.22877C29.3333 5.79087 29.3333 8.30502 29.3333 13.3333C29.3333 18.3616 29.3333 20.8759 27.7712 22.4379C26.2092 24 23.6949 24 18.6667 24H13.3333C8.305 24 5.79086 24 4.22875 22.4379C2.66666 20.8759 2.66666 18.3616 2.66666 13.3333Z" stroke="white" stroke-width="1.5" stroke-linecap="round"/>
<path d="M21.3333 29.3333C19.7644 28.4853 17.9428 28 16 28C14.0572 28 12.2356 28.4853 10.6667 29.3333" stroke="white" stroke-width="1.5" stroke-linecap="round"/>
</svg>
